<mxfile host="app.diagrams.net" modified="2023-04-19T09:40:40.377Z" agent="Mozilla/5.0 (Windows NT 10.0; Win64; x64) AppleWebKit/537.36 (KHTML, like Gecko) Chrome/112.0.0.0 Safari/537.36" version="21.1.7" etag="OE0xp8L9VYpvWiWUlr-O" type="github">
  <diagram name="Page-1" id="ZJ-PqE5nx8u6SGioMJN7">
    <mxGraphModel>
      <root>
        <mxCell id="0" />
        <mxCell id="1" parent="0" />
      </root>
    </mxGraphModel>
  </diagram>
</mxfile>
